# xmcd
#
# Track frame offsets: 
#        150
#        21180
#        41452
#        63845
#        85345
#        109970
#        130387
#        150055
#        169267
#        185147
#
# Disc length: 2716 seconds
#
# Revision: 0
# Processed by: cddbd v1.5.2PL0 Copyright (c) Steve Scherf et al.
# Submitted via: ExactAudioCopy v1.0b2
#
DISCID=7d0a9a0a
DTITLE=Jack de Keyzer - Wild At Heart
DYEAR=1990
DGENRE=Blues
TTITLE0=In My Wildest Dreams
TTITLE1=Goin' To Memphis
TTITLE2=Haunted Man
TTITLE3=Cotton Candy
TTITLE4=When Love Walks Out
TTITLE5=Insatiable
TTITLE6=The Way That I Love You
TTITLE7=All Your Love
TTITLE8=Cinderella
TTITLE9=Top Of The Line
EXTD=
EXTT0=
EXTT1=
EXTT2=
EXTT3=
EXTT4=
EXTT5=
EXTT6=
EXTT7=
EXTT8=
EXTT9=
PLAYORDER=
